<svg xmlns="http://www.w3.org/2000/svg" viewBox="0 0 520.04 536.09"><defs><style>.cls-1{fill:#fff;}</style></defs><g id="Layer_2" data-name="Layer 2"><g id="Layer_1-2" data-name="Layer 1"><path d="M447.49,367.14c.25,2.5.59,4.42.59,6.33.05,15.17-.23,30.33.14,45.49.17,6.94-2.8,11.31-8.39,14.63-12.06,7.16-25.32,11-38.86,14a377.52,377.52,0,0,1-77.83,8.47c-31.22.24-62.36-.37-93-7.15-12.63-2.8-24.93-7.13-37.33-10.92a44.43,44.43,0,0,1-7.21-3.44c-6.81-3.54-10.11-8.68-9.79-16.87.58-14.47.14-29,.18-43.48,0-2.11.28-4.22.46-6.64,1.25.13,2.14,0,2.78.32,23,12,48,17,73.41,19.8,19.33,2.12,38.84,3.75,58.27,3.67,39-.15,77.94-2.76,115.37-15.44C433.21,373.57,439.8,370.35,447.49,367.14ZM312.12,439.86c7.05,0,7.92-.9,7.88-8.11,0-6.85-.92-7.74-7.75-7.76-7.22,0-8.11.83-8.12,7.86S305,439.87,312.12,439.86Z"/><path d="M176.57,446.81c4.46,2.05,7.85,3.73,11.33,5.2,23.58,10,48.51,14.38,73.78,16.74,16.39,1.54,32.9,2.82,49.34,2.66,39-.38,77.94-2.83,115.35-15.52,6.89-2.34,13.48-5.56,20.94-8.68a54.94,54.94,0,0,1,.76,6.32c.06,15.33-.16,30.66.13,46,.12,6.29-2.24,11.1-7.63,13.43C429.31,517.81,418,523,406.22,526.13c-27.17,7.12-55,9.69-83.12,9.92-31.22.26-62.3-.57-93-7-15.67-3.29-31.15-7.12-45.31-15.09-6.34-3.57-9.15-8.35-8.93-15.8.44-14.65.11-29.32.15-44C176,452.06,176.33,450,176.57,446.81Zm143.43,57c0-7-.9-7.86-8.17-7.82-6.81,0-7.68.91-7.7,7.8,0,7.18.84,8.07,7.93,8.07S320,511,320,503.81Z"/><path d="M176.55,288c12.91,4.38,24.74,9.72,37.15,12.31a501.46,501.46,0,0,0,60.14,9.25c20.33,1.71,40.9,1.73,61.33,1.11,31.22-.94,62.12-4.83,91.88-15,6.7-2.3,13.11-5.45,20.36-8.5.26,2.48.66,4.53.67,6.58.05,15.16-.19,30.33.13,45.48.13,6.49-2.51,10.77-7.76,14-12.13,7.41-25.56,11.33-39.25,14.34a374.76,374.76,0,0,1-77.33,8.51c-31.55.28-63-.57-94-7.06-15.51-3.25-30.82-7.1-44.86-14.9-6.54-3.64-9.39-8.54-9.15-16.19.46-14.64.11-29.32.16-44C176.05,291.85,176.39,289.77,176.55,288ZM320,343.8c0-7-.91-7.85-8.18-7.81-6.81,0-7.67.91-7.69,7.8,0,7.19.85,8.07,7.93,8.07S320,351,320,343.8Z"/><path d="M152.11,168H14.68c-2.16,0-4.34.06-6.49-.12C3.13,167.44.24,165,.2,160c-.17-21.49-.12-43,0-64.46,0-4.77,2.77-7.32,7.54-7.56,2.16-.11,4.33-.12,6.49-.12H290.07c1.66,0,3.33,0,5,.06,6.14.33,8.84,2.85,9,9,.18,9.66.08,19.32.09,29,0,10.33,0,20.66,0,31-.05,8.63-2.4,11-11,11q-70.46.06-140.93,0ZM39.61,151.5c5.15,0,10.32.23,15.46-.07,5-.29,8.28-3.19,8.43-8.21q.45-15.21,0-30.43c-.13-5-3.3-8.19-8.29-8.33q-15.21-.42-30.43,0c-4.73.13-8,3.1-8.13,7.9q-.46,15.45,0,30.92c.14,5,3.55,7.85,8.49,8.15S34.78,151.51,39.61,151.5Zm88.11-23.6h.06c0-4.66.3-9.34-.07-14-.52-6.49-3-9.29-9.33-9.57-9.63-.42-19.3-.4-28.93,0-5.94.28-8.63,2.93-8.89,8.83-.43,9.8-.43,19.64,0,29.43.26,5.89,3,8.52,8.93,8.79,9.63.43,19.3.44,28.93,0,6.2-.27,8.67-2.95,9.21-9.12C128.06,137.58,127.72,132.72,127.72,127.9Zm71.92-8.05c16.64,0,33.29.05,49.94,0,5.55,0,6.38-1.19,6.42-7.58.05-6.94-.75-8.11-6.32-8.2-8.48-.13-17-.06-25.46-.06-24.14,0-48.28,0-72.42.08-2.19,0-6,.59-6.28,1.61a27.12,27.12,0,0,0-.51,11.57c.26,1.28,4.34,2.49,6.69,2.52C167.67,120,183.66,119.86,199.64,119.85Zm-.07,32H244c11.52,0,12-.33,12-8.07,0-7.53-.48-7.83-12.24-7.83h-30c-20.64,0-41.28,0-61.93.08-2.2,0-6,.54-6.3,1.56a26.92,26.92,0,0,0-.58,11.56c.25,1.28,4.3,2.54,6.63,2.58C167.6,152,183.58,151.86,199.57,151.87Zm80.49-32c7.05,0,8-.93,7.95-8.08,0-6.87-.91-7.77-7.7-7.8-7.27,0-8.17.82-8.18,7.82C272.11,119,273,119.86,280.06,119.86ZM280,136c-7.06,0-7.93.91-7.89,8.11,0,6.95.95,7.81,8.25,7.77,6.74,0,7.62-1,7.63-7.87C288,136.86,287.13,136,280,136Z"/><path d="M312.21,232a352.63,352.63,0,0,1,86.93,7.91c13.83,3,27.54,6.66,39.93,13.92.86.51,1.72,1,2.53,1.61,8.28,5.89,8.74,12.26-.31,16.86a179.1,179.1,0,0,1-35.11,13.83c-27.15,7.18-55,9.66-83.11,9.92-31.2.28-62.29-.57-92.95-7-15.49-3.26-31-6.75-44.83-14.9-12.06-7.09-12-13.35.2-20.5s25.77-10.79,39.46-13.74A357.61,357.61,0,0,1,312.21,232Z"/><path d="M293.92,216.46c-10.7.83-21.41,1.46-32.08,2.54-24.59,2.49-49,6.26-71.9,16-7.81,3.33-15,8.49-21.85,13.62-6.53,4.87-7.71,12.57-7.9,20.25-.17,6.82-.18,13.66-.06,20.48.09,4.64-1.9,6.62-6.57,6.62-48-.07-95.93,0-143.9-.09-6.8,0-9.53-2.7-9.57-9.4Q-.08,255.77.1,225c0-6.78,2.31-8.83,9.12-9.12,1.16,0,2.33,0,3.5,0l275.81,0h5.4ZM63.69,256.21c0-5,.22-10-.06-15-.28-5.16-3.16-8.64-8.44-8.79-10.13-.28-20.29-.27-30.42,0-5,.14-8.06,3.48-8.2,8.43q-.41,15,0,29.93c.14,5.23,3.42,8.45,8.63,8.59q15,.39,29.93,0c5.26-.16,8.2-3.56,8.5-8.73C63.9,265.87,63.68,261,63.69,256.21Zm64,.19c0-5,.33-10-.09-15-.51-6-2.89-8.74-8.74-9-10-.43-20-.28-29.93,0-5,.14-8.21,3.27-8.35,8.28-.28,10.13-.28,20.29,0,30.42.14,5,3.4,8.11,8.37,8.25,10,.29,20,.44,29.93,0,5.84-.26,8.19-3,8.72-9C128.05,265.75,127.72,261.06,127.72,256.4Z"/><path d="M81,424q-34.71,0-69.43,0c-9.3,0-11.55-2.26-11.58-11.5Q0,383.73,0,355c0-9.23,1.9-11.11,11.21-11.12q70.43,0,140.87,0c7.17,0,8,.83,8,8.13q0,32,0,63.94c0,7.18-.84,8-8.12,8Q116.51,424,81,424ZM16.35,383.91h-.16c0,4,0,8,0,12a16.66,16.66,0,0,0,.15,2c.79,6.49,3,9.31,9.36,9.59,9.63.42,19.31.4,28.94,0,6-.27,8.65-2.91,8.91-8.8.45-9.8.45-19.64,0-29.43-.27-5.9-3-8.55-8.91-8.82-9.62-.44-19.3-.46-28.93,0-6.35.28-8.79,3.08-9.31,9.58C16.05,374.57,16.35,379.25,16.35,383.91ZM104,407.57v-.06c5,0,10,.24,15-.07,5.21-.31,8.48-3.4,8.61-8.63q.39-15,0-29.93c-.15-5.25-3.54-8.36-8.71-8.5-9.81-.26-19.64-.4-29.44,0-5.92.26-8.59,2.94-8.85,8.87-.42,9.79-.42,19.63,0,29.43.26,5.86,3,8.25,9,8.77C94.33,407.9,99.19,407.57,104,407.57Z"/><path d="M48.07,184c3.65,0,7.31,0,11,0,3.21.05,4.91,1.75,5,5,0,2,0,4,0,6-.08,3.23-1.8,4.92-5,4.94q-11,.07-21.93,0c-3.22,0-4.9-1.76-5-5,0-2,0-4,0-6,.08-3.22,1.79-4.9,5-4.95C40.76,183.92,44.41,184,48.07,184Z"/><path d="M256.56,184c3.48,0,7,0,10.46,0,3.21.05,4.91,1.73,5,5q.08,3,0,6c-.08,3.22-1.78,4.93-5,5q-11,.07-21.93,0c-3.21,0-4.9-1.74-5-5,0-2,0-4,0-6,.08-3.22,1.77-4.91,5-5C248.91,183.92,252.73,184,256.56,184Z"/><path d="M48.06,327.88c-3.66,0-7.31.05-11,0-3.21-.05-4.9-1.74-5-5q-.06-3,0-6c.08-3.21,1.77-4.94,5-5q11-.06,21.93,0c3.21,0,4.91,1.73,5,4.95,0,2,0,4,0,6-.08,3.22-1.78,4.91-5,4.95C55.37,327.91,51.71,327.87,48.06,327.88Z"/><path class="cls-1" d="M312.12,439.86c-7.13,0-8-.87-8-8s.9-7.89,8.12-7.86c6.83,0,7.72.91,7.75,7.76C320,439,319.17,439.85,312.12,439.86Z"/><path class="cls-1" d="M320,503.81c0,7.17-.85,8.05-7.94,8.05s-7.95-.89-7.93-8.07c0-6.89.89-7.77,7.7-7.8C319.1,496,320,496.8,320,503.81Z"/><path class="cls-1" d="M320,343.8c0,7.18-.85,8.06-7.94,8.06s-7.95-.88-7.93-8.07c0-6.89.88-7.76,7.69-7.8C319.09,336,320,336.8,320,343.8Z"/><path class="cls-1" d="M39.61,151.5c-4.83,0-9.66.24-14.47-.05s-8.35-3.11-8.49-8.15q-.45-15.45,0-30.92c.14-4.8,3.4-7.77,8.13-7.9q15.21-.44,30.43,0c5,.14,8.16,3.35,8.29,8.33q.4,15.21,0,30.43c-.15,5-3.47,7.92-8.43,8.21C49.93,151.73,44.76,151.5,39.61,151.5Zm0-15.55c7.4.07,8.42-.84,8.48-7.58.08-7.39-.83-8.41-7.57-8.48-7.4-.07-8.42.84-8.48,7.58C32,134.87,32.87,135.89,39.61,136Z"/><path class="cls-1" d="M127.72,127.9c0,4.82.34,9.68-.08,14.46-.54,6.17-3,8.85-9.21,9.12-9.63.41-19.3.4-28.93,0-6-.27-8.67-2.9-8.93-8.79-.44-9.79-.44-19.63,0-29.43.26-5.9,3-8.55,8.89-8.83,9.63-.44,19.3-.46,28.93,0,6.35.28,8.81,3.08,9.33,9.57.37,4.63.07,9.31.07,14Zm-23.56-8c-7.15,0-8.12.93-8.13,7.94s1,8.11,8,8.12,8.09-.92,8.11-7.94S111.17,119.9,104.16,119.89Z"/><path class="cls-1" d="M199.64,119.85c-16,0-32,.12-47.94-.1-2.35,0-6.43-1.24-6.69-2.52a27.12,27.12,0,0,1,.51-11.57c.26-1,4.09-1.6,6.28-1.61,24.14-.11,48.28-.08,72.42-.08,8.49,0,17-.07,25.46.06,5.57.09,6.37,1.26,6.32,8.2,0,6.39-.87,7.56-6.42,7.58C232.93,119.9,216.28,119.85,199.64,119.85Z"/><path class="cls-1" d="M199.57,151.87c-16,0-32,.1-47.95-.12-2.33,0-6.38-1.3-6.63-2.58a26.92,26.92,0,0,1,.58-11.56c.26-1,4.1-1.55,6.3-1.56,20.65-.12,41.29-.08,61.93-.08h30c11.76,0,12.22.3,12.24,7.83,0,7.74-.47,8.07-12,8.07Z"/><path class="cls-1" d="M280.06,119.86c-7.08,0-7.95-.89-7.93-8.06,0-7,.91-7.85,8.18-7.82,6.79,0,7.68.93,7.7,7.8C288,118.93,287.11,119.86,280.06,119.86Z"/><path class="cls-1" d="M280,136c7.11,0,8,.88,8,8,0,6.92-.89,7.84-7.63,7.87-7.3,0-8.22-.82-8.25-7.77C272.09,136.89,273,136,280,136Z"/><path class="cls-1" d="M63.69,256.21c0,4.82.21,9.66-.07,14.47-.3,5.17-3.24,8.57-8.5,8.73q-15,.43-29.93,0c-5.21-.14-8.49-3.36-8.63-8.59q-.4-15,0-29.93c.14-4.95,3.17-8.29,8.2-8.43,10.13-.31,20.29-.32,30.42,0,5.28.15,8.16,3.63,8.44,8.79C63.91,246.22,63.69,251.22,63.69,256.21Zm-15.6-.4c0-7-1-7.93-8.13-7.92-7,0-7.94,1-7.92,8.15,0,7,1,7.93,8.14,7.91C47.18,263.93,48.11,263,48.09,255.81Z"/><path class="cls-1" d="M127.72,256.4c0,4.66.33,9.35-.08,14-.53,6-2.88,8.77-8.72,9-10,.44-20,.29-29.93,0-5-.14-8.23-3.24-8.37-8.25-.29-10.13-.29-20.29,0-30.42.14-5,3.37-8.14,8.35-8.28,10-.29,20-.44,29.93,0,5.85.26,8.23,3,8.74,9C128.05,246.39,127.72,251.41,127.72,256.4Zm-24,7.55c7.34.06,8.34-.85,8.4-7.67.05-7.34-.86-8.34-7.67-8.39-7.34-.06-8.34.86-8.4,7.67C96,262.9,96.89,263.9,103.7,264Z"/><path class="cls-1" d="M16.35,383.91c0-4.66-.3-9.34.07-14,.52-6.5,3-9.3,9.31-9.58,9.63-.42,19.31-.4,28.93,0,6,.27,8.64,2.92,8.91,8.82.44,9.79.44,19.63,0,29.43-.26,5.89-3,8.53-8.91,8.8-9.63.43-19.31.45-28.94,0-6.34-.28-8.57-3.1-9.36-9.59a16.66,16.66,0,0,1-.15-2c0-4,0-8,0-12Zm23.47,8c7.24,0,8.24-.91,8.27-7.8,0-7.26-.87-8.22-7.79-8.26-7.26,0-8.23.88-8.26,7.79C32,391,32.91,391.92,39.82,392Z"/><path class="cls-1" d="M104,407.57c-4.82,0-9.68.33-14.47-.09-6-.52-8.7-2.91-9-8.77-.45-9.8-.45-19.64,0-29.43.26-5.93,2.93-8.61,8.85-8.87,9.8-.43,19.63-.29,29.44,0,5.17.14,8.56,3.25,8.71,8.5q.44,15,0,29.93c-.13,5.23-3.4,8.32-8.61,8.63-5,.31-10,.07-15,.07Zm.29-31.68c-7.27,0-8.23.87-8.27,7.79,0,7.24.91,8.24,7.81,8.27,7.26,0,8.22-.87,8.26-7.8C112.13,376.89,111.22,375.93,104.3,375.89Z"/><path d="M39.61,136c-6.74-.06-7.65-1.08-7.57-8.48.06-6.74,1.08-7.65,8.48-7.58,6.74.07,7.65,1.09,7.57,8.48C48,135.11,47,136,39.61,136Z"/><path d="M104.16,119.89c7,0,8,1,7.94,8.12s-1,8-8.11,7.94-8-1-8-8.12S97,119.88,104.16,119.89Z"/><path d="M48.09,255.81c0,7.16-.91,8.12-7.91,8.14C33,264,32.05,263,32,256c0-7.15.94-8.13,7.92-8.15C47.12,247.88,48.08,248.81,48.09,255.81Z"/><path d="M103.7,264c-6.81-.05-7.72-1.05-7.67-8.39.06-6.81,1.06-7.73,8.4-7.67,6.81.05,7.72,1.05,7.67,8.39C112,263.1,111,264,103.7,264Z"/><path d="M39.82,392c-6.91,0-7.82-1-7.78-8.27,0-6.91,1-7.82,8.26-7.79,6.92,0,7.83,1,7.79,8.26C48.06,391,47.06,392,39.82,392Z"/><path d="M104.3,375.89c6.92,0,7.83,1,7.8,8.26,0,6.93-1,7.84-8.26,7.8-6.9,0-7.84-1-7.81-8.27C96.07,376.76,97,375.85,104.3,375.89Z"/><path d="M361.12,113.88a6,6,0,0,1,.92-8.58c2.45-2.45,6.43-2.14,8.88.61l26.64,31.24L464,76.52a6.18,6.18,0,1,1,8.26,9.19l-71.34,65.22a6.37,6.37,0,0,1-8.88-.92ZM414.71.58,516.37,51.1A6.74,6.74,0,0,1,520,57.23C517,102.55,505.34,139,487.28,168.69c-18.07,30-42.87,52.67-72,70.12a6.66,6.66,0,0,1-6.74,0c-29.09-17.45-53.58-40.11-71.95-70.12-18.07-29.7-29.71-66.14-32.46-111.46a5.76,5.76,0,0,1,3.67-6.13L409.2.58a6.89,6.89,0,0,1,5.51,0Zm92.47,60L412,13.44,317,60.6c3.06,41,13.78,74.4,30.31,101.66C363.88,189.2,385.92,210,412,226c26-15.92,48.38-36.75,64.61-63.69C493.09,135,503.81,101.63,507.18,60.6Z"/></g></g></svg>