<svg xmlns="http://www.w3.org/2000/svg" viewBox="0 0 283.67 403"><g id="Layer_2" data-name="Layer 2"><g id="Layer_1-2" data-name="Layer 1"><path d="M174.46,0c1.53.42,3.08.75,4.58,1.27a24.79,24.79,0,0,1,7.17,4.2q4.31,3.41,8.59,6.84c1.26,1,2.49,2.08,3.73,3.13a3.57,3.57,0,0,1,.37.4c-2,.8-4,1.52-5.9,2.37-2.68,1.19-5.31,2.48-8,3.74a1.86,1.86,0,0,0-.45.3,29,29,0,0,0-7.29,9.58c-.85,1.9-1.48,3.9-2.25,5.84-2.26,5.78-4.52,11.56-6.83,17.33a24.33,24.33,0,0,1-5.84,8.32A55.77,55.77,0,0,1,150,72.18c-4.53,2.48-9.15,4.79-13.73,7.19a82.24,82.24,0,0,0-9.62,5.48A14,14,0,0,0,122.53,89,12.46,12.46,0,0,0,121,93.86a16.74,16.74,0,0,0,2.92,11.64,32.47,32.47,0,0,0,14.75,12.13c1.14.49,2.31.89,3.44,1.4a6.13,6.13,0,0,1,2.38,1.84,4.41,4.41,0,0,1,.56.95,39.34,39.34,0,0,0-23.6.07,2.47,2.47,0,0,1,.65-1.76,9,9,0,0,1,3-2.2l.45-.22a6.89,6.89,0,0,0-1.29-2.36,28.81,28.81,0,0,0-6.15-5.46c-1.33-1-2.74-1.81-4-2.87a18.82,18.82,0,0,1-5.77-9.23c-.26-.9-.43-1.83-.66-2.82l-14.28-.82,0-.07,8.45-2.42a11,11,0,0,0-3.92-1,45.35,45.35,0,0,0-11,.54,211.46,211.46,0,0,0-29.56,7.16c-11.34,3.42-22.52,7.32-33.62,11.43-2.88,1.06-5.73,2.17-8.6,3.25l-.57.21v-2l-.55.26a20.29,20.29,0,0,1-11.4,2.22c-.85-.1-1.69-.27-2.54-.41v-.1l8.48-6.45,0-.1H2.63l0-.12L63.94,74.8l0-.1H50.71l0-.1.34-.25q25.11-16,50.22-32,7.85-5,15.77-9.83a137.22,137.22,0,0,1,18.39-9.3c1.48-.63,2.92-1.33,4.38-2a19.85,19.85,0,0,0,4.68-3.41C148.89,14,153.24,10,158,6.51a41.66,41.66,0,0,1,8.35-5,18.5,18.5,0,0,1,5.4-1.47A2,2,0,0,0,172,0Z"/><path d="M172.57,110.45a111.19,111.19,0,0,0-111.1,111.1,116.07,116.07,0,0,0,5.88,36.15,15.52,15.52,0,1,0,29.39-10,78.19,78.19,0,0,1-4.41-28.51c1.17-41.44,34.68-75.54,76.12-77.59a80.07,80.07,0,0,1,8.82,159.89s-15.58.88-23.22,2.05c-3.82.59-6.76,1.18-8.82,1.47a1.18,1.18,0,0,1-1.47-1.47l2.65-12.93,14.4-66.42a15.34,15.34,0,1,0-30-6.47s-34.68,161.66-35,163.42a15.34,15.34,0,0,0,30,6.47c.29-1.77,5-23.22,5-23.22a39.05,39.05,0,0,1,32.92-30.57c3.53-.59,17.34-1.47,17.34-1.47a111.12,111.12,0,0,0-8.52-221.91Zm7.93,255.71a18.62,18.62,0,1,0,14.41,22C197,377.92,190.79,368.22,180.5,366.16Z"/></g></g></svg>