<svg xmlns="http://www.w3.org/2000/svg" viewBox="0 0 544.1 416.45"><g id="Layer_2" data-name="Layer 2"><g id="Layer_1-2" data-name="Layer 1"><path d="M149.71,158.05l-43.58-27.89L30,228.35l43.59,27.9Zm84.11,179.1v.56h.61v.56l.61.56h.62l.61,1.11h0a1.91,1.91,0,0,1,.61,1.12h.62v.56h.61v.55h0l.62.56h0v.56h0l.61.56h0v.56h0l.61.55h0v.56h0l.62.56h0v.56h0v.56h.61v.55h0v.56h0l.62.56h0v.56h0V350h0v.55h0l.61.56h0v.56h0v.56h0v.55h0v.56h0l.62.56h0v.56h0V355h0v.56h0v.55h0v.56h0v.56h0v.56h0v.55h0v.56h0v.56h0V360h0v.56h-.62v.55h0v.56h0v.56h0v.56h0v.56h0l-.61.55h0v1.12h0c-.62,2.79-2.46,5-3.69,7.25h0l-.61.56h0c-.62.56-.62,1.12-1.84,1.68h0v.55h0l-.62.56h0v.56h-.61v.56h-.61v.56h-.62v.55l22.1,13.95c1.84,1.68,4.3,1.68,6.76,1.68a14.76,14.76,0,0,0,5.52-3.35l2.45-3.35a7.15,7.15,0,0,0,1.23-6.14,6.54,6.54,0,0,0-3.07-5l-8-5L275,352.22l7.36,5c1.23.56,2.46,1.67,3.69,2.23l5.52,3.35c6.76,4.46,16,8.93,20.26,3.35l2.46-3.35a7.19,7.19,0,0,0,1.22-6.14,6.51,6.51,0,0,0-3.06-5l-8-5,2.46-2.79c0-2.23,0-4.47,1.23-6.7a15.67,15.67,0,0,1,8.59-6.13l2.46-2.79,7.36,5A25.45,25.45,0,0,0,338.18,336a14.29,14.29,0,0,0,6.14-1.12,1.91,1.91,0,0,0,.61-1.11l2.46-2.79c1.23-1.68,2.45-3.91,1.84-6.14,0-1.12-.61-2.23-2.45-3.35l-7.37-5,14.12-18.41,8,5c1.84,1.11,4.3,1.11,6.14,1.11a10.23,10.23,0,0,0,5.52-2.78h0v-.56h0v-.56h0v-.56h0c.61,0,.61-.56.61-1.12h0v-.55a7.49,7.49,0,0,0-1.22-3.35A5.73,5.73,0,0,0,370.1,292l-10.43-6.14L263.9,221.66c-8.6-1.68-23.33,5-38.06,11.16-11.67,5-22.72,10-33.15,12.27-19.65,3.35-34.38-.55-39.91-24h0v-.56h0c-3.07-13.39,0-20.08,6.75-25.1,3.07-5,8-8.37,14.12-10.61l-10.43-4.46-57.71,74.77,11,16.73h.62l.61-.56h.61v-.55h1.23l.61-.56h0v-.56h1.23v-.56h1.23l.61-.55h.62l.61-.56h1.84v-.56h2.46l.61-.56H140.5v.56H143V268h1.84v.56h1.84v.55h1.23v.56h1.23v.56h1.22v.56h.62v.55h1.23v.56h.61v.56h.61l.62.56h0l1.22,1.11h.62v.56h.61v.56h.62v.56h.61v.56h0l.62.55h0v-.55h.61v-.56h0l1.23-.56h0l.61-.56h0a3.27,3.27,0,0,1,1.84-1.11h0V273c.62,0,.62,0,1.23-.56h.62l.61-.56h.61l.62-.56h.61l.61-.55h.62l.61-.56H170l.61-.56h1.84v-.56h3.08v-.55h8v.55h3.07l.61.56H189v.56h1.84v.56h1.23v.55h1.23v.56h1.22v.56h.62l.61.56h.62v.56H197l.62.55h.61l.61.56h0v.56h0c.62,0,.62.56,1.23.56h0l.61.56h0v.55h.62l.61.56h0V278h.61v.56h.62v.56h.62v.55h0l.61.56h0v.56H205v.56h0l.62.56h0v.55h.61V283h0v.56h.61v.56h0v.56h0l.62.55h0v.56h0v.56c.61,0,.61.56.61,1.11h0l.62.56v1.12h0v.56h0a1.87,1.87,0,0,1,.61,1.11h0v.56h0v1.12h0v.56h0v.55h0v.56h0l.61.56h0v.56h0v.56h0v.55h0V297h0l-.61.56h0v.56h0v.55h0v.56h0v.56h0v1.68h0l-.61.55h0v.56h0v.56h0v.56h1.22v.55h1.23v.56h.61v.56h1.23v.56h.61v.56h.62V307h0a2.2,2.2,0,0,1,1.23.56h0l.61.56h0l.62.56h0l.61.56h0l.61.55h0v.56h.62v.56h.61v.56h0l.61.56h0v.55h.62v.56h.62v.56h0v.56h.61v.56h0v.55h.61V316h0v.56h.62v.56h0v.56h0l.61.55h0v.56h0v.56h0l.61.56h0v.55h0V321h0v.56h.62v.56h0v.56h0v.55h0v.56h0v.56h0v.56h.61v.56h0V326h0v.56h0v.56h0v.56h0v.56h0v.55h0v.56h0v.56h0v.56h0V331h-.61v.55h0v.56h1.23v.56h1.22v.56h.62l.61.56h.61v.55h1.23v.56h.61v.56h.62l.62.56h.61v.55h.61v.56h.62Zm-17.81,58h0a31.6,31.6,0,0,1-20.26,8.93c-7.36,0-15.34-1.68-21.48-6.7a2.24,2.24,0,0,0-1.23-.56,28.4,28.4,0,0,1-8.59-14,30.54,30.54,0,0,1-16.58-6.69l-.61-.56a28.54,28.54,0,0,1-8.6-13.95A32.54,32.54,0,0,1,121.47,355l-.61-.56a28.59,28.59,0,0,1-8.6-13.95,30.62,30.62,0,0,1-16.57-6.69l-.62-.56c-5.52-5-9.21-11.72-9.21-18.41a24.77,24.77,0,0,1,7.37-19.53c1.84-1.68,3.68-3.91,5.52-5.58l-9.2-14-2.46,3.35c-3.68,5-11.66,6.13-17.8,2.79L5.44,240.63C-.08,237.28-1.92,230,2.38,225L92.62,107.84a12.79,12.79,0,0,1,17.18-2.79l64.47,40.73A10.8,10.8,0,0,1,178,160.84L205,172l37.45-21.76a11.52,11.52,0,0,1,8.6-1.67l114.18,10a10.39,10.39,0,0,1,4.91-12.83L434,105.05a13.59,13.59,0,0,1,17.8,2.79L542,225a10.79,10.79,0,0,1-3.07,15.62l-64.46,41.29c-5.53,3.34-13.51,2.23-17.19-2.79l-3.69-4.47-63.23,43.52c0,.56-.61.56-1.23,1.12A34.71,34.71,0,0,1,374.4,326c0,6.7-2.46,12.84-6.75,18.42l-2.46,3.9c-5.52,6.7-14.73,10-23.94,10.6,0,5.58-2.46,11.72-6.14,16.74L332,379c-11.05,15.06-24.55,15.62-36.83,11.72-.62,3.34-2.46,6.13-4.3,8.92l-3.07,3.91a31.83,31.83,0,0,1-21.48,12.27,33.54,33.54,0,0,1-25.18-5Zm-4.3-42.41c-1.22.56-1.84.56-2.45,1.68h0l-19,19.53h0a3.78,3.78,0,0,0,0,5.58l.61.55a11.06,11.06,0,0,0,3.07,1.12,3.44,3.44,0,0,0,3.07-1.67l17.19-16.74,2.46-2.79h0a.57.57,0,0,1,.61-.56h0v-.56h0v-.56h.61v-.55h0v-.56h0v-.56h0v-.56h-.61v-.55h0V355h0l-.61-.56h0c0-.56-.62-.56-.62-.56h0l-.61-.56h-.61v-.56h-3.08Zm-13.5-27.89v-.56h-.61v-.56h-1.23v-.56h-2.46v.56h-1.22v.56h-1.23v.56h0l-27.63,27.89a6.57,6.57,0,0,0-.61,3.35,3.41,3.41,0,0,0,1.23,2.79h.61a4.92,4.92,0,0,0,3.07,1.12,3.44,3.44,0,0,0,3.07-1.68h0l19-19.52h.61l8-8.37h0v-.56h.62v-.56h0v-.56h.61v-.55h0v-.56h0v-.56h0v-.56h-.61V326h0v-.55h-.62v-.56h-.61Zm-22.1-32.36-.61,1.11-17.81,17.86-.61.56-18.42,19-.61.55a7.43,7.43,0,0,0-1.23,3.35c0,1.12.61,1.67,1.23,2.79l.61.56a8.47,8.47,0,0,0,3.68.56,11.09,11.09,0,0,0,3.08-1.12h0l.61-1.12,26.39-26.78.62-.55,10.44-10.61h0v-.55h.61v-.56h0V297h0v-.56h0v-1.11h0v-.56h0v-.56h0v-.56h-.61v-.55h-.62l-.61-.56h0V292H181v-.56H178V292h-1.23v.56h-.61Zm-38.06-1.68v-.56h-1.23v-.55h-4.3v.55h-.61v.56h-.62l-19,19.53a3.89,3.89,0,0,0-1.22,3.35,4.08,4.08,0,0,0,1.22,2.79l.62.56c.61.56,1.84.56,3.06.56a5,5,0,0,0,3.08-1.12h0l.61-.56.61-.56.62-1.11,17.8-17.86h0v-.55h.61v-.56h0v-.56h0v-.56h0v-.56h0v-.55h0v-.56h0V292h-.61v-.56h0v-.56h-.61Zm300.2-160.68-43.59,27.89,76.12,98.2,43.59-27.9Zm-59.55,53L252.84,171.44,202.5,201a156.67,156.67,0,0,1-17.18,7.82c-4.91,2.23-8.6,3.34-8,7.81h0c1.84,5.58,5.52,6.69,9.82,5.58,8-1.12,17.8-5.58,27.63-10.05,20.25-8.92,41.74-17.85,59.54-11.71,1.23.55,1.84,1.11,3.08,1.67,35.6,24,71.21,48,106.81,71.42a28.51,28.51,0,0,1,10.44,10h0v.56h.61v.56h0v.55h.62v.56h0l40.51-27.89Z"/><path d="M250.13,0a72.14,72.14,0,0,1,72,72A71.89,71.89,0,1,1,199.47,21.13,70.89,70.89,0,0,1,250.13,0ZM273,83.33a15.06,15.06,0,0,0-4.3-11c-2.94-2.74-7.63-4.89-14.09-6.65v-16a27.13,27.13,0,0,1,11.54,5.47l4.7-8a40.4,40.4,0,0,0-7.44-4.3,36.7,36.7,0,0,0-8.6-2.15V35.6h-7.44v4.89a28.19,28.19,0,0,0-7.23,1.57,15.34,15.34,0,0,0-5.68,3.52A12.56,12.56,0,0,0,231,50.47a13.9,13.9,0,0,0-1.37,6.26,16.44,16.44,0,0,0,1.18,6.46,15.61,15.61,0,0,0,3.32,4.89,20.22,20.22,0,0,0,5.67,3.52,48.34,48.34,0,0,0,8,2.74V91a20.62,20.62,0,0,1-7.62-2.54,32.39,32.39,0,0,1-7.24-4.69l-5.48,7.62A38.59,38.59,0,0,0,236.83,97a38.19,38.19,0,0,0,10.56,2.74v8.6h7.44V100a21.62,21.62,0,0,0,7.43-1.76,18,18,0,0,0,5.67-3.32,13.62,13.62,0,0,0,3.72-5.09A14.17,14.17,0,0,0,273,83.33ZM247.78,64c-3.32-1-5.47-2-6.45-3.13a6.69,6.69,0,0,1-1.76-4.7,6.56,6.56,0,0,1,2.15-4.69,9.12,9.12,0,0,1,6.06-2.35ZM263,84.12A6.37,6.37,0,0,1,260.89,89a10.52,10.52,0,0,1-6.26,2.34V75.9c1.57.59,2.94,1.17,3.91,1.57a15.69,15.69,0,0,1,2.74,1.76,12.86,12.86,0,0,1,1.37,2.15,11.31,11.31,0,0,1,.39,2.74ZM250.13,14.28A57.69,57.69,0,0,1,291,112.68,57.81,57.81,0,0,1,192.42,72a57.77,57.77,0,0,1,57.71-57.71Zm35.21,22.5A49.81,49.81,0,1,0,299.82,72a49.66,49.66,0,0,0-14.48-35.21Zm10-10A63.77,63.77,0,1,0,205.14,117a63.52,63.52,0,0,0,90.18,0,63.52,63.52,0,0,0,0-90.18Z"/></g></g></svg>