<svg xmlns="http://www.w3.org/2000/svg" viewBox="0 0 558.09 588.55"><defs><style>.cls-1{opacity:0.22;}.cls-2{fill:none;stroke:#231f20;stroke-miterlimit:10;stroke-width:18px;}.cls-3{fill:#131b0f;}</style></defs><g id="Layer_2" data-name="Layer 2"><g id="Layer_2-2" data-name="Layer 2"><g class="cls-1"><path d="M271,476.27c-7.58,6.28-10.75,14.77-13.73,23.21-3.54,10-9,18.7-17.52,24.91-15.33,11.1-17.51,26-13.53,43,.57,2.41,1.13,4.81,1.69,7.23-9.6,1.66-16.69-1.83-20.22-10.53-9.36-23.08-18.83-46.13-19.1-71.67-.07-7.33-3.93-13-9.55-17.35-12.62-9.69-16.38-18.36-7.55-36.07a34.76,34.76,0,0,0,3-8.91c1.16-6.14-2.13-10.1-7.59-12.55a104.25,104.25,0,0,1-20.22-11.39c-6.43-4.84-13-8.51-21-9.65-9.49-1.36-15.68-6.6-19-15.51-3.11-8.35-8-15.4-14-22.09-4-4.46-6.29-10.81-8.27-16.67-1.69-5-4.13-6.09-8.86-4.85-7.54,2-12.73,7-17.31,12.8-8.31,10.5-14,22.12-15.05,35.76-.18,2.31-2.07,4.48-3.16,6.71-1.94-1.82-4.61-3.3-5.7-5.54-4.64-9.54-6.19-19.85-7.15-30.37-.65-7.2-2.82-14.25-3.63-21.44a99,99,0,0,1-.28-17.39c3-46.35,17.58-88.7,44.1-126.91a7.49,7.49,0,0,1,6.38-3.64c9.93-.69,19.9-1.4,29.73-2.9a43.64,43.64,0,0,0,14.85-5.09c7-4,14.27-5.85,22.16-6.77a67.78,67.78,0,0,0,18.2-4.49c6.86-2.9,12.78-2.72,18.74,1.56,5.39,3.89,10.92,7.59,16.24,11.57,7.8,5.85,16.06,10.65,25.77,12.52,11.26,2.18,18.15,8.38,20.65,20,1.22,5.68,4.67,10.9,7.2,16.28,1.27,2.7,3.07,5.18,4.07,8,1.9,5.28.74,8-4.4,10.27-12,5.29-24.08,10.37-36.13,15.54-1.53.65-3.09,1.22-4.59,1.94-8.58,4.12-11.71,9.59-9.9,18.91,1.49,7.7,1.66,15-1.28,22.48-2.41,6.13-.07,12,2.18,17.84a106.26,106.26,0,0,1,4.84,16.08c.82,3.91-1.38,6.46-5.61,6.34-9.32-.27-15.13,6.05-21.45,11.34-.84.7-1.08,2.31-1.27,3.56-.39,2.62-.58,5.28-.82,7.93-.43,4.62-1.82,8-7.27,9.06-5.29,1-9.5,4.2-10.66,9.94-1.23,6.12.83,11.22,5.85,14.88,3.48,2.55,7.21,4.74,10.84,7.08,3.21,2.06,7,3.6,9.52,6.28,3.8,4,7.71,3.79,11.65,1.4,6.62-4,13.64-4.31,21.11-4.23a152.48,152.48,0,0,0,22.74-1.85c7.17-1,13.29.63,18.19,5.81,8.65,9.16,14.72,19.45,11.79,32.77C264.78,460.27,265.89,468.56,271,476.27Z"/><path d="M491.15,222.83c3.07,7.14,6,13.42,8.52,19.88,18.85,48.74,21.81,98.55,9.6,149.29-.48,2-1.9,4.52-3.61,5.42-5.94,3.14-12,6.55-18.4,8.24-11,2.89-19.37-1.81-23.49-12.39-3.15-8.08-6.29-16-12.11-22.71-6.81-7.85-14.5-13.73-25.44-13.61-11.12.13-19.71-5-27.23-12.64-4.91-5-9.73-10.05-14.89-14.75-7.62-6.94-16.25-10.92-27-7.5a8.22,8.22,0,0,1-.34,1.27c-2.74,6-2.83,12.07-1.28,18.34a1.66,1.66,0,0,1-3.16.92C351,339,348.24,338.82,345,339c-5,.25-7.45-1.61-7.18-6.6.23-4.21,1.58-8.43,2.92-12.49,1.89-5.65,3.6-10.83-1.5-16.05-3.07-3.14-2-7,1.58-9.43a41.53,41.53,0,0,1,9.32-4.62c4.68-1.67,9.58-2.73,14.33-4.22,3.16-1,6.95-1.49,9.2-3.57,7.72-7.19,14.89-15,22.26-22.55a2.07,2.07,0,0,0,.44-.89c1.17-4,3.11-8.67-.87-11.51-4.25-3-7.78.71-10.63,3.71a44.14,44.14,0,0,0-5.61,7.6c-5.79,9.75-14.83,14-25.59,15.1-12.95,1.28-20.16-7.83-15.23-19.92C343.6,241,353.3,232.91,367,231.75a29.87,29.87,0,0,0,18.6-7.92c7-6.28,15-11.55,22.61-17.15,6.25-4.58,12.79-3.8,19.33-.62C437.74,211,448,215.79,458,221,468.61,226.43,479.07,231.73,491.15,222.83Z"/><path d="M340.69,454.78c0-10.48,0-20.95,0-31.42a29.64,29.64,0,0,0-.7-5.93c-2-9.16-5.86-11.6-15-9.52-1.29.29-2.58.63-3.87.94-8.36,2-12.91,0-18.12-6.8a128.17,128.17,0,0,0-13-14.19c-6.36-6.08-8.61-11.31-.74-17.12,3.12-2.3,5.2-6,7.79-9,7.45-8.7,14.63-14.85,28.38-14.43,19.1.6,38,1.91,56.65,5.28,6.68,1.21,13.12,4.59,19.25,7.78,9.37,4.87,18.64,9.5,29.59,9.25,4-.09,6.86,1.9,8.54,5.73,1.86,4.26,4.06,8.37,6.09,12.55,4.17,8.55,3.91,16.63-3.31,22.77-12,10.25-18.2,22.33-17.33,38.22.25,4.57-1.21,9.21-1.6,13.84-.8,9.55-3.71,18.06-10.4,25.29a24.21,24.21,0,0,0-5.11,9.53c-3.1,10.81-10.82,17.11-20.63,20.66-3.81,1.38-8.73,0-13.09-.54-5.24-.66-10.39-2.14-15.63-2.61-9.56-.84-13.77-3.61-15.55-13a164.36,164.36,0,0,1-2.18-23.26c-.35-8-.08-16-.08-24Z"/><path d="M109.33,145.25c2.2-2,3.19-3.11,4.35-4,8.06-5.86,16.25-11.55,24.21-17.55,10.16-7.66,22.47-10.27,33.94-14.86,12.6-5,24.86-11.13,37.77-15.16,11-3.44,22.64-5.31,34.14-6.63a239.5,239.5,0,0,1,65.1,1.65c12.33,2,22.87,15.31,20.47,27.73a97.84,97.84,0,0,0-.86,35.12c1.14,6.88-.88,12.38-7.13,16.15a39.67,39.67,0,0,0-14.68,15.92c-3.59,6.82-8.85,9.86-17.05,9.28-6-.42-12.08,1.63-18.16,2.4-8.14,1-14.73-1-19.91-8.21C234,162.79,211,148.53,180,149.11c-14.95.28-29.93.17-44.87-.45C126.92,148.32,118.77,146.55,109.33,145.25Z"/></g><circle class="cls-2" cx="269.63" cy="332.58" r="246.97"/><path class="cls-3" d="M546.33,89.35A80.19,80.19,0,1,0,409.51,173l68.41,111.86L546.33,173A80.3,80.3,0,0,0,546.33,89.35ZM477.9,166a34.58,34.58,0,1,1,34.58-34.59A34.58,34.58,0,0,1,477.9,166Z"/><path class="cls-3" d="M509,217.87c-13,7.56-27.71,10.36-41.28,2.33-14.53-8.61-26.81-26.71-34.48-41.51-14.45-27.87-18.67-55.59-4.11-84.86C441,70,462.84,54.52,488.57,51.71A80.18,80.18,0,0,0,409.51,173l68.41,111.86L526.17,206A146.8,146.8,0,0,1,509,217.87Z"/><path class="cls-3" d="M480.25,90.64a40.8,40.8,0,1,0,40.8,40.79A40.79,40.79,0,0,0,480.25,90.64ZM477.9,166a34.58,34.58,0,1,1,34.58-34.59A34.58,34.58,0,0,1,477.9,166Z"/><path class="cls-3" d="M148.61,38.37A80.19,80.19,0,1,0,11.79,122L80.2,233.9,148.61,122A80.28,80.28,0,0,0,148.61,38.37ZM80.19,115a34.58,34.58,0,1,1,34.57-34.59A34.59,34.59,0,0,1,80.19,115Z"/><path class="cls-3" d="M111.27,166.89c-13,7.56-27.71,10.36-41.28,2.33-14.53-8.61-26.81-26.71-34.48-41.5C21.06,99.85,16.85,72.12,31.4,42.85,43.24,19,65.12,3.54,90.86.73A80.19,80.19,0,0,0,11.79,122L80.2,233.9,128.45,155A146.8,146.8,0,0,1,111.27,166.89Z"/><path class="cls-3" d="M82.53,39.66a40.8,40.8,0,1,0,40.8,40.79A40.8,40.8,0,0,0,82.53,39.66ZM80.19,115a34.58,34.58,0,1,1,34.57-34.59A34.59,34.59,0,0,1,80.19,115Z"/><path class="cls-3" d="M287.92,323.24a80.19,80.19,0,1,0-136.83,83.67l68.42,111.87,68.41-111.87A80.32,80.32,0,0,0,287.92,323.24Zm-68.43,76.67a34.58,34.58,0,1,1,34.58-34.58A34.58,34.58,0,0,1,219.49,399.91Z"/><path class="cls-3" d="M250.57,451.77c-13,7.55-27.7,10.36-41.27,2.32-14.54-8.6-26.82-26.7-34.49-41.5-14.44-27.87-18.66-55.6-4.11-84.86,11.84-23.82,33.72-39.31,59.46-42.12a80.17,80.17,0,0,0-79.07,121.3l68.42,111.87,48.25-78.9A145.8,145.8,0,0,1,250.57,451.77Z"/><path class="cls-3" d="M221.84,324.54a40.79,40.79,0,1,0,40.79,40.79A40.79,40.79,0,0,0,221.84,324.54Zm-2.35,75.37a34.58,34.58,0,1,1,34.58-34.58A34.58,34.58,0,0,1,219.49,399.91Z"/></g></g></svg>