<svg xmlns="http://www.w3.org/2000/svg" viewBox="0 0 237.98 408.83"><g id="Layer_2" data-name="Layer 2"><g id="Layer_1-2" data-name="Layer 1"><path d="M62.29,408.83c-4.82-2.7-4.47-7-3.69-11.54,2.88-16.76,5.8-33.53,8.49-50.33a6.78,6.78,0,0,0-1.7-5.08C53,329.62,40.46,317.53,28,305.4c-2.49-2.43-4.48-5.09-3.18-8.81s4.53-4.58,7.93-5.06c17-2.42,33.94-4.88,50.93-7.16,2.66-.35,4.38-1.28,5.57-3.72q10.22-21,20.59-41.91c1-1.92,1.31-3.32-1.22-4.37-15-6.27-21.57-26.15-10.2-40.91a10.24,10.24,0,0,0,.8-1.57c-10-9.43-20-18.78-29.87-28.22-12.13-11.56-24.41-23-36.19-34.87-7.26-7.33-9.83-17-10-27.08-.25-14-.06-27.93-.07-41.9,0-5.42,0-5.42-5.22-5.48C6.41,54.22.09,47.89,0,36.46,0,30.07,0,23.69,0,17.3.14,6.79,6.85,0,17.26,0Q119,0,220.81,0c10.2,0,17,6.76,17.1,17q.14,10.18,0,20.36c-.13,10.38-6.71,16.86-17.09,17-5.84.07-5.85.07-5.85,6,0,14.1,0,28.2,0,42.31,0,11.17-3.86,20.9-12,28.63q-30.13,28.81-60.55,57.33c-2.67,2.5-3.09,4.15-1,7.52,8.36,13.59,3.41,30.51-10.87,37.68-2.94,1.47-3.16,2.71-1.79,5.43q10.2,20.33,20.08,40.82a6.83,6.83,0,0,0,6,4.33c16.6,2.22,33.17,4.72,49.74,7.14,1,.15,2.1.37,3.14.59,6.24,1.34,8.22,7,3.8,11.65s-9.23,8.82-13.78,13.29c-8.35,8.2-16.56,16.56-25,24.65-2.41,2.3-2,4.69-1.53,7.31,2.76,16,5.46,32,8.35,47.94.87,4.78,1,9-3.85,11.82h-4c-16.24-8.53-32.5-17-48.69-25.62a7.52,7.52,0,0,0-7.84,0C104.62,388.86,94,394.31,83.43,400c-5.26,2.82-10.37,5.9-15.55,8.87ZM119.43,12.06H21.29c-1.59,0-3.38-.35-4.73.26S13,14.52,13,15.75c-.33,7.57-.24,15.15-.15,22.73,0,2.66,2,3.71,4.34,3.69,2.18,0,4.77,1.18,6.09-2.11,3.61-9,6.16-10.64,15.84-10.64H174.73c9.18,0,18.35,0,27.53.05,6.26.06,11.17,3.2,12.2,8.83.84,4.59,3.56,4.15,6.64,3.9,3.48-.29,4.2-2.6,4.16-5.61-.08-5.59,0-11.17,0-16.76,0-7.2-.54-7.75-7.68-7.75Zm9.18,198.2a9.27,9.27,0,0,0-9.28-9.78,9.56,9.56,0,1,0-.41,19.11A9.25,9.25,0,0,0,128.61,210.26Z"/></g></g></svg>