<svg xmlns="http://www.w3.org/2000/svg" viewBox="0 0 500.94 513.96"><defs><style>.cls-1{opacity:0.22;}.cls-2{fill:none;stroke:#231f20;stroke-miterlimit:10;stroke-width:7px;}.cls-3{fill:#131b0f;}</style></defs><g id="Layer_2" data-name="Layer 2"><g id="Layer_2-2" data-name="Layer 2"><g class="cls-1"><path d="M251.84,407.18c-7.59,6.29-10.76,14.78-13.74,23.22-3.54,10-9,18.7-17.52,24.9-15.32,11.11-17.51,26-13.52,43q.84,3.6,1.68,7.23c-9.6,1.66-16.69-1.83-20.22-10.54-9.35-23.07-18.83-46.13-19.1-71.67-.07-7.32-3.93-13-9.54-17.34-12.63-9.69-16.39-18.36-7.56-36.07a34.76,34.76,0,0,0,3-8.91c1.16-6.15-2.12-10.1-7.58-12.55a104.86,104.86,0,0,1-20.23-11.39c-6.43-4.84-13-8.51-21-9.65-9.49-1.36-15.67-6.6-19-15.51-3.1-8.36-8-15.4-14-22.1-4-4.45-6.3-10.8-8.28-16.66-1.69-5-4.12-6.09-8.86-4.85-7.54,2-12.73,7-17.31,12.8-8.3,10.5-14,22.12-15,35.76-.18,2.3-2.06,4.48-3.16,6.71-1.94-1.83-4.61-3.3-5.7-5.54-4.64-9.54-6.18-19.86-7.14-30.37-.66-7.2-2.83-14.25-3.64-21.44a100,100,0,0,1-.28-17.39c3-46.35,17.58-88.7,44.1-126.91a7.49,7.49,0,0,1,6.38-3.64c9.94-.69,19.9-1.4,29.73-2.9a43.59,43.59,0,0,0,14.85-5.1c7-4,14.27-5.84,22.16-6.77A67.4,67.4,0,0,0,139.56,99c6.87-2.9,12.78-2.72,18.74,1.56,5.4,3.88,10.92,7.58,16.24,11.57,7.8,5.85,16.07,10.65,25.77,12.52,11.26,2.17,18.15,8.38,20.65,20,1.23,5.68,4.67,10.89,7.2,16.28,1.27,2.7,3.07,5.18,4.07,8,1.9,5.29.75,8-4.4,10.28-12,5.28-24.08,10.37-36.13,15.54-1.52.65-3.09,1.22-4.59,1.94-8.58,4.12-11.71,9.59-9.9,18.91,1.49,7.69,1.66,15-1.27,22.47-2.42,6.13-.08,12,2.18,17.85A105.88,105.88,0,0,1,183,272c.83,3.91-1.38,6.46-5.61,6.34-9.32-.27-15.13,6.05-21.45,11.33-.84.71-1.08,2.32-1.27,3.56-.39,2.63-.58,5.29-.82,7.94-.42,4.62-1.82,8-7.27,9.06-5.29,1-9.5,4.2-10.66,9.94-1.23,6.12.84,11.21,5.85,14.88,3.48,2.54,7.21,4.74,10.84,7.08,3.21,2.06,7,3.6,9.52,6.27,3.8,4,7.71,3.8,11.65,1.41,6.62-4,13.65-4.32,21.11-4.24a152.47,152.47,0,0,0,22.74-1.84c7.17-1,13.29.63,18.19,5.81,8.65,9.16,14.72,19.44,11.8,32.77C245.62,391.19,246.73,399.47,251.84,407.18Z"/><path d="M472,153.74c3.08,7.15,6,13.43,8.52,19.89,18.85,48.74,21.81,98.55,9.61,149.28-.49,2-1.91,4.52-3.62,5.43-5.94,3.14-12,6.55-18.4,8.24-11,2.89-19.37-1.81-23.49-12.39-3.15-8.08-6.29-16-12.1-22.71-6.81-7.85-14.5-13.73-25.45-13.61-11.12.13-19.71-5-27.23-12.65-4.91-5-9.73-10-14.89-14.74-7.62-7-16.25-10.92-27-7.5a8.22,8.22,0,0,1-.34,1.27c-2.74,5.95-2.82,12.07-1.27,18.34a2.22,2.22,0,0,1-1.19,1.82,2.2,2.2,0,0,1-2-.9c-1.3-3.64-4.07-3.77-7.29-3.61-5.05.25-7.45-1.61-7.18-6.6.23-4.21,1.58-8.44,2.93-12.49,1.88-5.65,3.59-10.84-1.51-16.05-3.06-3.14-2-7,1.58-9.43A42,42,0,0,1,331,220.7c4.68-1.66,9.58-2.72,14.33-4.21,3.16-1,7-1.49,9.2-3.58,7.72-7.18,14.89-15,22.26-22.54a2.13,2.13,0,0,0,.44-.89c1.17-4,3.11-8.68-.86-11.51-4.26-3-7.79.7-10.63,3.71a43.3,43.3,0,0,0-5.62,7.6c-5.79,9.75-14.83,14-25.59,15.09-12.95,1.28-20.16-7.82-15.22-19.91,5.13-12.56,14.84-20.63,28.58-21.79a29.82,29.82,0,0,0,18.59-7.93c7-6.27,15-11.54,22.62-17.14,6.24-4.58,12.78-3.8,19.32-.62,10.16,4.93,20.39,9.73,30.43,14.9C449.45,157.34,459.91,162.64,472,153.74Z"/><path d="M321.53,385.69c0-10.47,0-20.94,0-31.42a29.63,29.63,0,0,0-.7-5.92c-2-9.16-5.86-11.61-15-9.52-1.29.29-2.58.63-3.87.93-8.36,2-12.91,0-18.12-6.79a126.32,126.32,0,0,0-13-14.19c-6.36-6.08-8.61-11.31-.74-17.12,3.12-2.3,5.2-6,7.79-9,7.45-8.7,14.63-14.86,28.39-14.43,19.09.6,38,1.9,56.64,5.28,6.68,1.21,13.12,4.59,19.25,7.78,9.37,4.87,18.64,9.5,29.59,9.25,4-.09,6.86,1.9,8.54,5.73,1.86,4.26,4.06,8.37,6.09,12.55,4.17,8.54,3.91,16.62-3.31,22.77-12,10.25-18.2,22.33-17.32,38.22.25,4.56-1.22,9.2-1.6,13.83-.8,9.56-3.72,18.07-10.41,25.3a24.06,24.06,0,0,0-5.1,9.53c-3.11,10.81-10.83,17.11-20.64,20.66-3.81,1.38-8.73,0-13.09-.54-5.24-.66-10.39-2.15-15.63-2.61-9.56-.84-13.77-3.61-15.55-13.05a164.09,164.09,0,0,1-2.18-23.26c-.35-8-.08-16-.08-23.95Z"/><path d="M90.17,76.17c2.21-2,3.19-3.11,4.35-4,8.06-5.87,16.25-11.55,24.21-17.55C128.9,47,141.2,44.39,152.67,39.8c12.6-5,24.86-11.13,37.77-15.16,11-3.44,22.64-5.31,34.14-6.63a239.48,239.48,0,0,1,65.1,1.65c12.33,2,22.87,15.31,20.47,27.73a97.83,97.83,0,0,0-.86,35.12c1.15,6.87-.88,12.38-7.13,16.15a39.54,39.54,0,0,0-14.68,15.92c-3.59,6.82-8.85,9.86-17.05,9.28-6-.43-12.08,1.63-18.16,2.4-8.14,1-14.73-1-19.91-8.21-17.52-24.34-40.54-38.6-71.52-38-15,.28-29.93.17-44.87-.45C107.76,79.24,99.61,77.47,90.17,76.17Z"/></g><circle class="cls-2" cx="250.47" cy="263.49" r="246.97"/><path class="cls-3" d="M110.87,24.56A51.33,51.33,0,0,0,23.29,78.12l43.79,71.6,43.79-71.6A51.42,51.42,0,0,0,110.87,24.56ZM67.07,73.63A22.13,22.13,0,1,1,89.21,51.5,22.13,22.13,0,0,1,67.07,73.63Z"/><path class="cls-3" d="M87,106.83c-8.3,4.83-17.74,6.63-26.42,1.48-9.31-5.5-17.17-17.09-22.07-26.56-9.25-17.84-11.95-35.59-2.64-54.32C43.42,12.18,57.43,2.27,73.9.47A51.32,51.32,0,0,0,23.29,78.12l43.79,71.6L98,99.22A95.64,95.64,0,0,1,87,106.83Z"/><path class="cls-3" d="M68.57,25.39A26.11,26.11,0,1,0,94.69,51.5,26.11,26.11,0,0,0,68.57,25.39Zm-1.5,48.24A22.13,22.13,0,1,1,89.21,51.5,22.13,22.13,0,0,1,67.07,73.63Z"/><path class="cls-3" d="M244.13,294.94a51.33,51.33,0,0,0-87.58,53.56l43.79,71.6,43.79-71.6A51.42,51.42,0,0,0,244.13,294.94ZM200.33,344a22.14,22.14,0,1,1,22.13-22.14A22.13,22.13,0,0,1,200.33,344Z"/><path class="cls-3" d="M220.23,377.21c-8.3,4.83-17.74,6.63-26.42,1.49-9.31-5.51-17.17-17.1-22.07-26.57-9.25-17.84-12-35.59-2.64-54.32,7.58-15.25,21.59-25.16,38.06-27a51.32,51.32,0,0,0-50.61,77.65l43.79,71.6,30.89-50.5A94.4,94.4,0,0,1,220.23,377.21Z"/><path class="cls-3" d="M201.83,295.77A26.11,26.11,0,1,0,228,321.88,26.11,26.11,0,0,0,201.83,295.77ZM200.33,344a22.14,22.14,0,1,1,22.13-22.14A22.13,22.13,0,0,1,200.33,344Z"/><path class="cls-3" d="M469.82,111a51.33,51.33,0,1,0-87.58,53.56L426,236.13l43.79-71.6A51.4,51.4,0,0,0,469.82,111ZM426,160.05a22.14,22.14,0,1,1,22.14-22.14A22.13,22.13,0,0,1,426,160.05Z"/><path class="cls-3" d="M445.92,193.24c-8.3,4.84-17.73,6.63-26.42,1.49-9.3-5.51-17.16-17.1-22.07-26.57-9.25-17.84-11.95-35.58-2.64-54.32,7.58-15.24,21.59-25.16,38.06-27a51.32,51.32,0,0,0-50.61,77.65L426,236.13l30.89-50.5A93.19,93.19,0,0,1,445.92,193.24Z"/><path class="cls-3" d="M427.53,111.8a26.11,26.11,0,1,0,26.11,26.11A26.11,26.11,0,0,0,427.53,111.8ZM426,160.05a22.14,22.14,0,1,1,22.14-22.14A22.13,22.13,0,0,1,426,160.05Z"/></g></g></svg>